<svg width="178" height="199" viewBox="0 0 178 199" fill="none" xmlns="http://www.w3.org/2000/svg">
<circle cx="3.96972" cy="4.38873" r="3.96972" fill="white" fill-opacity="0.9"/>
<circle cx="3.96972" cy="110.248" r="3.96972" fill="white" fill-opacity="0.9"/>
<circle cx="3.96972" cy="25.5605" r="3.96972" fill="white" fill-opacity="0.9"/>
<circle cx="3.96972" cy="131.42" r="3.96972" fill="white" fill-opacity="0.9"/>
<circle cx="3.96972" cy="46.7324" r="3.96972" fill="white" fill-opacity="0.9"/>
<circle cx="3.96972" cy="152.592" r="3.96972" fill="white" fill-opacity="0.9"/>
<circle cx="3.96972" cy="67.9042" r="3.96972" fill="white" fill-opacity="0.9"/>
<circle cx="3.96972" cy="173.763" r="3.96972" fill="white" fill-opacity="0.9"/>
<circle cx="3.96972" cy="89.0761" r="3.96972" fill="white" fill-opacity="0.9"/>
<circle cx="3.96972" cy="194.935" r="3.96972" fill="white" fill-opacity="0.9"/>
<circle cx="131.001" cy="4.38873" r="3.96972" fill="white" fill-opacity="0.9"/>
<circle cx="131.001" cy="110.248" r="3.96972" fill="white" fill-opacity="0.9"/>
<circle cx="131.001" cy="25.5605" r="3.96972" fill="white" fill-opacity="0.9"/>
<circle cx="131.001" cy="131.42" r="3.96972" fill="white" fill-opacity="0.9"/>
<circle cx="131.001" cy="46.7324" r="3.96972" fill="white" fill-opacity="0.9"/>
<circle cx="131.001" cy="152.592" r="3.96972" fill="white" fill-opacity="0.9"/>
<circle cx="131.001" cy="67.9042" r="3.96972" fill="white" fill-opacity="0.9"/>
<circle cx="131.001" cy="173.763" r="3.96972" fill="white" fill-opacity="0.9"/>
<circle cx="131.001" cy="89.0761" r="3.96972" fill="white" fill-opacity="0.9"/>
<circle cx="131.001" cy="194.935" r="3.96972" fill="white" fill-opacity="0.9"/>
<circle cx="67.4852" cy="4.38873" r="3.96972" fill="white" fill-opacity="0.9"/>
<circle cx="67.4852" cy="110.248" r="3.96972" fill="white" fill-opacity="0.9"/>
<circle cx="67.4852" cy="25.5605" r="3.96972" fill="white" fill-opacity="0.9"/>
<circle cx="67.4852" cy="131.42" r="3.96972" fill="white" fill-opacity="0.9"/>
<circle cx="67.4852" cy="46.7324" r="3.96972" fill="white" fill-opacity="0.9"/>
<circle cx="67.4852" cy="152.592" r="3.96972" fill="white" fill-opacity="0.9"/>
<circle cx="67.4852" cy="67.9042" r="3.96972" fill="white" fill-opacity="0.9"/>
<circle cx="67.4852" cy="173.763" r="3.96972" fill="white" fill-opacity="0.9"/>
<circle cx="67.4852" cy="89.0761" r="3.96972" fill="white" fill-opacity="0.9"/>
<circle cx="67.4852" cy="194.935" r="3.96972" fill="white" fill-opacity="0.9"/>
<circle cx="25.1416" cy="4.38873" r="3.96972" fill="white" fill-opacity="0.9"/>
<circle cx="25.1416" cy="110.248" r="3.96972" fill="white" fill-opacity="0.9"/>
<circle cx="25.1416" cy="25.5605" r="3.96972" fill="white" fill-opacity="0.9"/>
<circle cx="25.1416" cy="131.42" r="3.96972" fill="white" fill-opacity="0.9"/>
<circle cx="25.1416" cy="46.7324" r="3.96972" fill="white" fill-opacity="0.9"/>
<circle cx="25.1416" cy="152.592" r="3.96972" fill="white" fill-opacity="0.9"/>
<circle cx="25.1416" cy="67.9042" r="3.96972" fill="white" fill-opacity="0.9"/>
<circle cx="25.1416" cy="173.763" r="3.96972" fill="white" fill-opacity="0.9"/>
<circle cx="25.1416" cy="89.0761" r="3.96972" fill="white" fill-opacity="0.9"/>
<circle cx="25.1416" cy="194.935" r="3.96972" fill="white" fill-opacity="0.9"/>
<circle cx="152.173" cy="4.38873" r="3.96972" fill="white" fill-opacity="0.9"/>
<circle cx="152.173" cy="110.248" r="3.96972" fill="white" fill-opacity="0.9"/>
<circle cx="152.173" cy="25.5605" r="3.96972" fill="white" fill-opacity="0.9"/>
<circle cx="152.173" cy="131.42" r="3.96972" fill="white" fill-opacity="0.9"/>
<circle cx="152.173" cy="46.7324" r="3.96972" fill="white" fill-opacity="0.9"/>
<circle cx="152.173" cy="152.592" r="3.96972" fill="white" fill-opacity="0.9"/>
<circle cx="152.173" cy="67.9042" r="3.96972" fill="white" fill-opacity="0.9"/>
<circle cx="152.173" cy="173.763" r="3.96972" fill="white" fill-opacity="0.9"/>
<circle cx="152.173" cy="89.0761" r="3.96972" fill="white" fill-opacity="0.9"/>
<circle cx="152.173" cy="194.935" r="3.96972" fill="white" fill-opacity="0.9"/>
<circle cx="88.6571" cy="4.38873" r="3.96972" fill="white" fill-opacity="0.9"/>
<circle cx="88.6571" cy="110.248" r="3.96972" fill="white" fill-opacity="0.9"/>
<circle cx="88.6571" cy="25.5605" r="3.96972" fill="white" fill-opacity="0.9"/>
<circle cx="88.6571" cy="131.42" r="3.96972" fill="white" fill-opacity="0.9"/>
<circle cx="88.6571" cy="46.7324" r="3.96972" fill="white" fill-opacity="0.9"/>
<circle cx="88.6571" cy="152.592" r="3.96972" fill="white" fill-opacity="0.9"/>
<circle cx="88.6571" cy="67.9042" r="3.96972" fill="white" fill-opacity="0.9"/>
<circle cx="88.6571" cy="173.763" r="3.96972" fill="white" fill-opacity="0.9"/>
<circle cx="88.6571" cy="89.0761" r="3.96972" fill="white" fill-opacity="0.9"/>
<circle cx="88.6571" cy="194.935" r="3.96972" fill="white" fill-opacity="0.9"/>
<circle cx="46.3135" cy="4.38873" r="3.96972" fill="white" fill-opacity="0.9"/>
<circle cx="46.3135" cy="110.248" r="3.96972" fill="white" fill-opacity="0.9"/>
<circle cx="46.3135" cy="25.5605" r="3.96972" fill="white" fill-opacity="0.9"/>
<circle cx="46.3135" cy="131.42" r="3.96972" fill="white" fill-opacity="0.9"/>
<circle cx="46.3135" cy="46.7324" r="3.96972" fill="white" fill-opacity="0.9"/>
<circle cx="46.3135" cy="152.592" r="3.96972" fill="white" fill-opacity="0.9"/>
<circle cx="46.3135" cy="67.9042" r="3.96972" fill="white" fill-opacity="0.9"/>
<circle cx="46.3135" cy="173.763" r="3.96972" fill="white" fill-opacity="0.9"/>
<circle cx="46.3135" cy="89.0761" r="3.96972" fill="white" fill-opacity="0.9"/>
<circle cx="46.3135" cy="194.935" r="3.96972" fill="white" fill-opacity="0.9"/>
<circle cx="173.344" cy="4.38873" r="3.96972" fill="white" fill-opacity="0.9"/>
<circle cx="173.344" cy="110.248" r="3.96972" fill="white" fill-opacity="0.9"/>
<circle cx="173.344" cy="25.5605" r="3.96972" fill="white" fill-opacity="0.9"/>
<circle cx="173.344" cy="131.42" r="3.96972" fill="white" fill-opacity="0.9"/>
<circle cx="173.344" cy="46.7324" r="3.96972" fill="white" fill-opacity="0.9"/>
<circle cx="173.344" cy="152.592" r="3.96972" fill="white" fill-opacity="0.9"/>
<circle cx="173.344" cy="67.9042" r="3.96972" fill="white" fill-opacity="0.9"/>
<circle cx="173.344" cy="173.763" r="3.96972" fill="white" fill-opacity="0.9"/>
<circle cx="173.344" cy="89.0761" r="3.96972" fill="white" fill-opacity="0.9"/>
<circle cx="173.344" cy="194.935" r="3.96972" fill="white" fill-opacity="0.9"/>
<circle cx="109.829" cy="4.38873" r="3.96972" fill="white" fill-opacity="0.9"/>
<circle cx="109.829" cy="110.248" r="3.96972" fill="white" fill-opacity="0.9"/>
<circle cx="109.829" cy="25.5605" r="3.96972" fill="white" fill-opacity="0.9"/>
<circle cx="109.829" cy="131.42" r="3.96972" fill="white" fill-opacity="0.9"/>
<circle cx="109.829" cy="46.7324" r="3.96972" fill="white" fill-opacity="0.9"/>
<circle cx="109.829" cy="152.592" r="3.96972" fill="white" fill-opacity="0.9"/>
<circle cx="109.829" cy="67.9042" r="3.96972" fill="white" fill-opacity="0.9"/>
<circle cx="109.829" cy="173.763" r="3.96972" fill="white" fill-opacity="0.9"/>
<circle cx="109.829" cy="89.0761" r="3.96972" fill="white" fill-opacity="0.9"/>
<circle cx="109.829" cy="194.935" r="3.96972" fill="white" fill-opacity="0.9"/>
</svg>
